<svg xmlns="http://www.w3.org/2000/svg" xmlns:xlink="http://www.w3.org/1999/xlink" aria-hidden="true" focusable="false" width="100px" height="100px" style="-ms-transform: rotate(360deg); -webkit-transform: rotate(360deg); transform: rotate(360deg);" preserveAspectRatio="xMidYMid meet" viewBox="0 0 1056 1024"><path d="M1041 512q0-67-17-131t-48-119t-75.5-101.5T803 80T687.5 25.5T559 1q-5-1-9-1h-22Q424 0 329 40.5t-164 109T55.5 313T15 512q0 83 26 161.5t73.5 141t110.5 110T366.5 998t161.5 26h20l5.5-.5l5.5-.5q99-6 188-48.5T900.5 864T1003 704t38-192zm-95 165q-52-15-140-26q10-68 10-139q0-56-7-111q44-5 81-12t48-10.5t17-5.5l-12-33q34 82 34 172q0 43-8 84.5T946 677zM301 512q0-18 1-35.5t2.5-34.5t3.5-34q27 2 55.5 3.5T426 414t69 1v222q-97 1-183 8q-10-66-11-133zM559 68q39 11 73.5 49.5t61 96.5T735 344q-25 2-52 3.5t-58.5 2.5t-65.5 2V68zm-64 1v283q-94-1-176-8q35-163 117-239q29-26 59-36zm0 632v254q-78-25-134-145q-21-48-35-102q79-6 169-7zm64 255V701q47 1 89.5 2.5T728 708q-25 99-70 165.5T559 956zm0-319V415q101-1 186-8q7 52 7 105q0 68-11 133q-83-7-182-8zm372-323q-3 1-7.5 2t-12.5 3t-19 4.5t-24.5 5t-31 5T800 338q-6-29-13-56t-15.5-52t-19-48t-22-43t-23.5-38q73 32 131 87t93 126zM375 91q-40 45-70.5 108.5T257 339q-82-9-134-22q67-136 202-205q25-12 50-21zM100 377q52 14 145 25q-4 27-5.5 54.5T238 512q0 70 12 139q-85 9-141 22q-30-78-30-161q0-69 21-135zm37 355q53-11 127-19q18 67 46.5 123t64.5 97q-76-27-137-79T137 732zm570 191q28-40 50.5-93T794 714q29 4 55.5 8t41 7t26.5 6q-74 129-210 188z" fill="#626262"/></svg>