<svg xmlns="http://www.w3.org/2000/svg" xmlns:xlink="http://www.w3.org/1999/xlink" aria-hidden="true" focusable="false" width="1.15em" height="1em" style="-ms-transform: rotate(360deg); -webkit-transform: rotate(360deg); transform: rotate(360deg); color: white" preserveAspectRatio="xMidYMid meet" viewBox="0 0 1024 896"><path d="M991 632V374l16-8q8-4 12.5-12t4.5-16q0-5-1-9t-3-7.5t-5.5-7t-6.5-5.5L526 52q-15-9-31 0L16 310q-16 9-16 28q0 9 4.5 16.5T17 366l210 112q-4 7-4 15v271q0 15 11 24q9 9 28.5 19.5t88 25.5T510 848q37 0 70-2t58.5-6t47-8.5T723 822t27.5-9.5t20-9.5t12-7.5t5.5-4.5q6-4 9-10.5t3-13.5V489q0-3-.5-6.5T797 476l130-68v224q-10 6-17 14.5t-11 19t-4 22.5q0 5 1 10t2.5 9.5t3.5 9t5 8.5t6.5 7.5t7.5 6.5t8.5 5.5t9 4t10 2.5t10.5 1q27 0 45.5-19t18.5-45q0-37-32-56zM736 748q-17 8-40 15t-73.5 14t-112.5 7q-151 0-223-37V510l208 110q3 2 7 3t8 1l15-4l211-111v239zM510 556L98 337l413-221l413 221z" fill="#626262"/></svg>