<svg xmlns="http://www.w3.org/2000/svg" xmlns:xlink="http://www.w3.org/1999/xlink" aria-hidden="true" focusable="false" width="1em" height="1em" style="-ms-transform: rotate(360deg); -webkit-transform: rotate(360deg); transform: rotate(360deg);" preserveAspectRatio="xMidYMid meet" viewBox="0 0 1024 1024"><path d="M576 736h-32V448q0-13-9.5-22.5T512 416h-64q-13 0-22.5 9.5T416 448t9.5 22.5T448 480h32v256h-32q-13 0-22.5 9.5T416 768t9.5 22.5T448 800h128q13 0 22.5-9.5T608 768t-9.5-22.5T576 736zm-64-384q27 0 45.5-18.5T576 288t-18.5-45.5T512 224t-45.5 18.5T448 288t18.5 45.5T512 352zm0-352q-83 0-161.5 26T209 99T99 209T26 350.5T0 512q0 104 40.5 199t109 163.5t163.5 109t199 40.5t199-40.5t163.5-109t109-163.5t40.5-199q0-83-26-161.5T925 209T815 99T673.5 26T512 0zm0 961q-73 0-141.5-22.5T247 874t-96.5-97t-64-123.5T64 512q0-91 35.5-174T195 195t143-95.5T512 64t174 35.5T829 195t95.5 143T960 512t-35.5 174T829 829.5t-143 96T512 961z" fill="#626262"/></svg>