<svg xmlns="http://www.w3.org/2000/svg" xmlns:xlink="http://www.w3.org/1999/xlink" aria-hidden="true" focusable="false" width="1.15em" height="1em" style="-ms-transform: rotate(360deg); -webkit-transform: rotate(360deg); transform: rotate(360deg);" preserveAspectRatio="xMidYMid meet" viewBox="0 0 1024 896"><path d="M990 878h-1q-12 0-19.5-8t-8.5-21q-1-14-6.5-36.5t-35-72.5t-76.5-89t-142.5-70T479 550v184q0 5-1.5 9t-3.5 8t-5.5 7t-7.5 5q-19 9-34-4L12 415q-6-5-9-11.5T0 390q0-15 12-25L427 25q15-13 33.5-4.5T479 50v179q40 2 77 6.5t72 12t67 18.5t61 25.5t55 31.5t49 37.5t43 43.5q43 50 70.5 114.5T1011 635t12 106t.5 76t-3.5 34t-10 19.5t-20 7.5zM447 486q78 0 144 8t116 23.5t89.5 34t70.5 43t52 46.5t40 49q-19-145-105-244q-131-153-407-153q-13 0-22.5-9.5T415 261V117L82 390l333 276V518q0-13 9-23q3-3 7-5t8-3t8-1z" fill="#626262"/></svg>