<svg xmlns="http://www.w3.org/2000/svg" xmlns:xlink="http://www.w3.org/1999/xlink" aria-hidden="true" focusable="false" width="100px" height="100px" style="-ms-transform: rotate(360deg); -webkit-transform: rotate(360deg); transform: rotate(360deg);" preserveAspectRatio="xMidYMid meet" viewBox="0 0 1024 960"><path d="M512 4Q408 4 313.5 44.5t-163 109T41.5 317T1 516q0 132 63.5 247T241 949q11 7 24 4t20-14t4-24t-14-20q-81-51-134-129l34-20q11-6 14.5-19t-3-24.5t-19.5-15t-24 3.5l-34 19q-18-38-29-79t-14-84h35q14 0 23-9.5t9-22.5t-9-22.5t-23-9.5H66q6-87 45-165l32 19q7 4 16 4q18 0 27-16q7-11 3.5-24T175 282l-32-19q49-71 120-119l18 31q9 16 28 16q8 0 16-4q5-3 9-8.5t5.5-11t1-12T336 143l-18-31q38-18 78.5-28.5T479 69v40q0 14 9.5 23t23 9t22.5-9t9-23V69q87 6 165 44l-18 30q-1 3-2 5.5t-1.5 5.5t-.5 5.5t.5 5.5t1.5 5.5t2.5 5t3 4.5t3.5 4t5 3l4 2l4 1.5l4 .5h4q4 0 8-1t7.5-3t7-5t5.5-7l17-30q71 49 119 119l-30 18q-6 3-9.5 8t-5.5 11t-1 12.5t4 11.5q5 8 12.5 12t15.5 4q4 0 8-1t8-3l30-17q38 77 44 164h-35q-13 0-22.5 9.5T891 516t9.5 22.5T923 548h35q-6 85-42 161l-32-18q-12-7-24.5-3.5T840 703q-3 5-4 11.5t1 12.5t5.5 11t9.5 8l32 19q-54 80-138 132q-11 7-14 19.5t4 24.5q3 4 7.5 7.5t9.5 5.5t10 2q9 0 17-5q114-70 178.5-185.5T1023 515q0-103-40.5-198t-109-163.5t-163-109T512 4zm236 412q8-5 12-12.5t4-15.5t-4-16q-7-11-19.5-14.5T716 360L542 461q-15-9-31-9q-26 0-45 19t-19 45q0 17 8.5 32t23.5 23.5t32 8.5q26 0 45-19t19-45z" fill="#626262"/></svg>